<?xml version="1.0" encoding="UTF-8"?>
<svg width="13px" height="11px" viewBox="0 0 13 11" version="1.1" xmlns="http://www.w3.org/2000/svg" xmlns:xlink="http://www.w3.org/1999/xlink">
    <!-- Generator: sketchtool 50.2 (55047) - http://www.bohemiancoding.com/sketch -->
    <title>17389F17-24F1-4236-B842-F656912DFECC</title>
    <desc>Created with sketchtool.</desc>
    <defs/>
    <g id="Symbols" stroke="none" stroke-width="1" fill="none" fill-rule="evenodd">
        <g id="button/short-primary" transform="translate(-19.000000, -19.000000)" fill="#FFFFFF" stroke="#FFFFFF" stroke-width="0.3">
            <g id="Arrow">
                <path d="M30.442,24.3667581 L22.04,24.3667581 L25.464,20.9087581 C25.671,20.6997581 25.67,20.3617581 25.461,20.1547581 C25.252,19.9467581 24.913,19.9487581 24.706,20.1587581 L20.402,24.5037581 C20.384,24.5187581 20.369,24.5347581 20.353,24.5537581 L20,24.9097581 L24.706,29.6617581 C24.81,29.7667581 24.948,29.8197581 25.085,29.8197581 C25.221,29.8197581 25.357,29.7687581 25.461,29.6647581 C25.67,29.4577581 25.671,29.1197581 25.464,28.9107581 L22.021,25.4337581 L30.442,25.4337581 C30.737,25.4337581 30.976,25.1957581 30.976,24.9007581 C30.976,24.6057581 30.737,24.3667581 30.442,24.3667581" id="icon-arrow" transform="translate(25.488000, 24.909879) scale(-1, 1) translate(-25.488000, -24.909879) "/>
            </g>
        </g>
    </g>
</svg>