<?xml version="1.0" encoding="UTF-8"?>
<svg width="13px" height="12px" viewBox="0 0 13 12" version="1.1" xmlns="http://www.w3.org/2000/svg" xmlns:xlink="http://www.w3.org/1999/xlink">
    <!-- Generator: sketchtool 50.2 (55047) - http://www.bohemiancoding.com/sketch -->
    <title>FC2397AA-BE15-485C-91A0-0ABFD6E0F70F</title>
    <desc>Created with sketchtool.</desc>
    <defs/>
    <g id="Symbols" stroke="none" stroke-width="1" fill="none" fill-rule="evenodd">
        <g id="button/tertiary" transform="translate(-110.000000, -3.000000)" fill="#50B848" stroke="#50B848" stroke-width="0.3">
            <g id="Stacked-Group-11-Copy">
                <path d="M121.464832,8.44691004 L113.044461,8.44691004 L116.475948,4.92543835 C116.6834,4.71260215 116.682398,4.36839815 116.472941,4.15759866 C116.263484,3.94578082 115.923743,3.94781753 115.71629,4.16167208 L111.402879,8.58642468 C111.38484,8.6017 111.369807,8.61799368 111.353772,8.63734243 L111,8.99987682 L115.71629,13.8390999 C115.820517,13.9460272 115.958819,14 116.096119,14 C116.232416,14 116.368714,13.9480639 116.472941,13.842155 C116.682398,13.6313555 116.6834,13.2871515 116.475948,13.0743153 L113.025419,9.53349485 L121.464832,9.53349485 C121.760477,9.53349485 122,9.29112635 122,8.99071162 C122,8.69029689 121.760477,8.44691004 121.464832,8.44691004" id="Arrow" transform="translate(116.500000, 9.000000) scale(-1, 1) translate(-116.500000, -9.000000) "/>
            </g>
        </g>
    </g>
</svg>